<svg xmlns="http://www.w3.org/2000/svg" viewBox="0 0 128 128" role="img" aria-label="Seedance 2.0">
  <defs>
    <linearGradient id="seedanceBg" x1="20" y1="18" x2="108" y2="112" gradientUnits="userSpaceOnUse">
      <stop offset="0" stop-color="#FFBE5C"/>
      <stop offset="0.55" stop-color="#FF5EE9"/>
      <stop offset="1" stop-color="#765DFF"/>
    </linearGradient>
    <linearGradient id="seedanceMark" x1="32" y1="36" x2="96" y2="94" gradientUnits="userSpaceOnUse">
      <stop offset="0" stop-color="#FFFFFF"/>
      <stop offset="1" stop-color="#FFF0FB"/>
    </linearGradient>
    <filter id="seedanceShadow" x="20" y="22" width="88" height="84" filterUnits="userSpaceOnUse">
      <feDropShadow dx="0" dy="8" stdDeviation="8" flood-color="#7B2FBA" flood-opacity="0.22"/>
    </filter>
  </defs>
  <rect width="128" height="128" rx="28" fill="#FFFFFF"/>
  <rect x="14" y="14" width="100" height="100" rx="28" fill="url(#seedanceBg)"/>
  <g filter="url(#seedanceShadow)">
    <path d="M82.5 36C71.8 28.8 52 29.8 43.6 41.1c-6.4 8.6-2 19.2 11.7 23.5l16.9 5.3c5.2 1.7 6.8 4.4 4.8 7.2-3.6 5.1-15.4 5.4-24.4-.7l-10.4 13c12.7 9.7 35.1 9.6 45.1-3.1 7.2-9.1 3.4-20.5-11.9-25.4l-16.1-5.2c-4.6-1.5-6.1-3.7-4.2-6.2 3-4 12-4.2 19.7 1.1L82.5 36Z" fill="url(#seedanceMark)"/>
    <path d="M42 94c14.5-1.3 31-9.8 44.1-22.9 4.4-4.4 8.2-9.1 11.3-13.8" fill="none" stroke="#FFFFFF" stroke-width="6" stroke-linecap="round" opacity="0.9"/>
  </g>
</svg>
