<svg
  xmlns="http://www.w3.org/2000/svg"
  width="24"
  height="24"
  fill="none"
  viewBox="0 0 24 24"
>
  <path
    fill="#EBEBEB"
    d="M6.95984 4H17.0402C17.706 3.99999 18.2656 3.99997 18.7234 4.03738C19.2022 4.0765 19.6571 4.16144 20.089 4.38148C20.7475 4.71703 21.283 5.25247 21.6185 5.91103C21.8386 6.34289 21.9235 6.79785 21.9626 7.27657C22 7.73444 22 8.29396 22 8.95982V15.0402C22 15.706 22 16.2656 21.9626 16.7234C21.9235 17.2021 21.8386 17.6571 21.6185 18.089C21.283 18.7475 20.7475 19.283 20.089 19.6185C19.6571 19.8386 19.2021 19.9235 18.7234 19.9626C18.2656 20 17.706 20 17.0402 20H6.95982C6.29396 20 5.73444 20 5.27657 19.9626C4.79785 19.9235 4.34289 19.8386 3.91103 19.6185C3.25247 19.283 2.71704 18.7475 2.38148 18.089C2.16144 17.6571 2.0765 17.2021 2.03738 16.7234C1.99997 16.2656 1.99999 15.706 2 15.0402V8.95984C1.99999 8.29397 1.99997 7.73445 2.03738 7.27657C2.0765 6.79785 2.16144 6.34289 2.38148 5.91103C2.71704 5.25247 3.25247 4.71704 3.91103 4.38148C4.34289 4.16144 4.79785 4.0765 5.27657 4.03738C5.73445 3.99997 6.29397 3.99999 6.95984 4Z"
  />
  <rect x="3" y="5" width="18" height="14" rx="2.5" fill="#68C4FF" />
  <path
    fill="#F5F5F5"
    d="M11.2952 7.93832C11.5345 7.28007 12.4655 7.28007 12.7048 7.93832L13.4804 10.0711C13.5562 10.2796 13.7204 10.4438 13.9289 10.5196L16.0617 11.2952C16.7199 11.5345 16.7199 12.4655 16.0617 12.7048L13.9289 13.4804C13.7204 13.5562 13.5562 13.7204 13.4804 13.9289L12.7048 16.0617C12.4655 16.7199 11.5345 16.7199 11.2952 16.0617L10.5196 13.9289C10.4438 13.7204 10.2796 13.5562 10.0711 13.4804L7.93832 12.7048C7.28007 12.4655 7.28007 11.5345 7.93832 11.2952L10.0711 10.5196C10.2796 10.4438 10.4438 10.2796 10.5196 10.0711L11.2952 7.93832Z"
  />
</svg>
